<svg id="Layer_1" data-name="Layer 1" xmlns="http://www.w3.org/2000/svg" viewBox="0 0 150 150"><defs><style>.cls-1{fill:#fff;}.cls-2,.cls-4{fill:none;stroke-miterlimit:10;stroke-width:3px;}.cls-2{stroke:#fff;}.cls-3{fill:#7833f2;}.cls-4{stroke:#7833f2;}</style></defs><title>Test_icons</title><rect class="cls-1" x="8.46" y="47.09" width="101.83" height="64.8"/><polyline class="cls-2" points="44.72 131.95 59.59 111.89 74.8 131.95"/><rect class="cls-3" x="2.29" y="39.38" width="114.17" height="7.71"/><circle class="cls-3" cx="91.06" cy="96.12" r="10.45"/><polygon class="cls-3" points="31.75 53.27 19.56 74.38 43.94 74.38 31.75 53.27"/><polygon class="cls-3" points="83.01 51.72 75.88 64.06 90.13 64.06 83.01 51.72"/><path class="cls-4" d="M19.48,102.64S27.1,87.21,42.34,87.21h10.9a38.79,38.79,0,0,0,17-3.62C76.62,80.46,83,74.67,83,64.07"/><path class="cls-3" d="M146.86,36.64l2.5,7.41c-4.54,2.35-9.51,4.41-15,6.65l-3.63-8A32.69,32.69,0,0,1,146.86,36.64Z"/><path class="cls-3" d="M116.42,26.35l-7.88-4c1.38-6,3.12-11,7.61-15.06l6.36,2.6A90.36,90.36,0,0,1,116.42,26.35Z"/><path class="cls-3" d="M135.37,16.11l6.45,6.19-13,11.86c-1.91-2.12-3.83-4-5.29-5.82.63-3.48,3.35-4.37,5.22-6.3S132.74,18.44,135.37,16.11Z"/></svg>